<svg width="75" height="84" viewBox="0 0 75 84" fill="none" xmlns="http://www.w3.org/2000/svg">
<rect width="75" height="84" rx="20" fill="url(#paint0_linear_53_2966)"/>
<g clip-path="url(#clip0_53_2966)">
<path d="M35.3611 25H32.7222C30.974 25 29.5556 26.4277 29.5556 28.1875V35.625C29.5556 37.9691 31.449 39.875 33.7778 39.875H42.2222C44.551 39.875 46.4444 37.9691 46.4444 35.625V28.1875C46.4444 26.4277 45.026 25 43.2778 25H40.6389V30.3125C40.6389 30.8969 40.1639 31.375 39.5833 31.375H36.4167C35.8361 31.375 35.3611 30.8969 35.3611 30.3125V25ZM23.2222 42C20.8934 42 19 43.9059 19 46.25V54.75C19 57.0941 20.8934 59 23.2222 59H33.7778C36.1066 59 38 57.0941 38 54.75V46.25C38 43.9059 36.1066 42 33.7778 42H31.1389V47.3125C31.1389 47.8969 30.6639 48.375 30.0833 48.375H26.9167C26.3361 48.375 25.8611 47.8969 25.8611 47.3125V42H23.2222ZM42.2222 59H52.7778C55.1066 59 57 57.0941 57 54.75V46.25C57 43.9059 55.1066 42 52.7778 42H50.1389V47.3125C50.1389 47.8969 49.6639 48.375 49.0833 48.375H45.9167C45.3361 48.375 44.8611 47.8969 44.8611 47.3125V42H42.2222C41.2326 42 40.3222 42.3387 39.6031 42.9164C39.9264 43.607 40.1111 44.3773 40.1111 45.1875V55.8125C40.1111 56.6227 39.9264 57.393 39.6031 58.0836C40.3222 58.6613 41.2326 59 42.2222 59Z" fill="white"/>
</g>
<defs>
<linearGradient id="paint0_linear_53_2966" x1="62.1269" y1="4.94118" x2="24.7" y2="77.6923" gradientUnits="userSpaceOnUse">
<stop stop-color="#8EC5E7"/>
<stop offset="0.985" stop-color="#2D87C0"/>
</linearGradient>
<clipPath id="clip0_53_2966">
<rect width="38" height="34" fill="white" transform="translate(19 25)"/>
</clipPath>
</defs>
</svg>
