<svg width="75" height="84" viewBox="0 0 75 84" fill="none" xmlns="http://www.w3.org/2000/svg">
<rect width="75" height="84" rx="20" fill="url(#paint0_linear_69_2956)"/>
<g clip-path="url(#clip0_69_2956)">
<path d="M39.9375 25.4375C39.9375 24.0893 38.8482 23 37.5 23C36.1518 23 35.0625 24.0893 35.0625 25.4375V43.9244L29.4715 38.3334C28.5193 37.3813 26.973 37.3813 26.0209 38.3334C25.0688 39.2855 25.0688 40.8318 26.0209 41.784L35.7709 51.534C36.723 52.4861 38.2693 52.4861 39.2215 51.534L48.9715 41.784C49.9236 40.8318 49.9236 39.2855 48.9715 38.3334C48.0193 37.3813 46.473 37.3813 45.5209 38.3334L39.9375 43.9244V25.4375ZM22.875 49.8125C20.1861 49.8125 18 51.9986 18 54.6875V57.125C18 59.8139 20.1861 62 22.875 62H52.125C54.8139 62 57 59.8139 57 57.125V54.6875C57 51.9986 54.8139 49.8125 52.125 49.8125H44.3936L40.943 53.2631C39.0387 55.1674 35.9537 55.1674 34.0494 53.2631L30.6064 49.8125H22.875ZM50.9062 54.0781C51.3911 54.0781 51.8561 54.2707 52.1989 54.6136C52.5418 54.9564 52.7344 55.4214 52.7344 55.9062C52.7344 56.3911 52.5418 56.8561 52.1989 57.1989C51.8561 57.5418 51.3911 57.7344 50.9062 57.7344C50.4214 57.7344 49.9564 57.5418 49.6136 57.1989C49.2707 56.8561 49.0781 56.3911 49.0781 55.9062C49.0781 55.4214 49.2707 54.9564 49.6136 54.6136C49.9564 54.2707 50.4214 54.0781 50.9062 54.0781Z" fill="white"/>
</g>
<defs>
<linearGradient id="paint0_linear_69_2956" x1="62.1269" y1="4.94118" x2="24.7" y2="77.6923" gradientUnits="userSpaceOnUse">
<stop stop-color="#8EC5E7"/>
<stop offset="0.985" stop-color="#2D87C0"/>
</linearGradient>
<clipPath id="clip0_69_2956">
<rect width="39" height="39" fill="white" transform="translate(18 23)"/>
</clipPath>
</defs>
</svg>
