<svg width="75" height="84" viewBox="0 0 75 84" fill="none" xmlns="http://www.w3.org/2000/svg">
<g clip-path="url(#clip0_53_2964)">
<rect width="75" height="84" rx="20" fill="url(#paint0_linear_53_2964)"/>
<g clip-path="url(#clip1_53_2964)">
<path d="M39.2898 60.05C43.1641 55.2852 52 43.7367 52 37.25C52 29.3828 45.5052 23 37.5 23C29.4948 23 23 29.3828 23 37.25C23 43.7367 31.8359 55.2852 35.7102 60.05C36.6391 61.1855 38.3609 61.1855 39.2898 60.05ZM37.5 32.5C38.7819 32.5 40.0113 33.0004 40.9177 33.8912C41.8241 34.782 42.3333 35.9902 42.3333 37.25C42.3333 38.5098 41.8241 39.718 40.9177 40.6088C40.0113 41.4996 38.7819 42 37.5 42C36.2181 42 34.9887 41.4996 34.0823 40.6088C33.1759 39.718 32.6667 38.5098 32.6667 37.25C32.6667 35.9902 33.1759 34.782 34.0823 33.8912C34.9887 33.0004 36.2181 32.5 37.5 32.5Z" fill="white"/>
</g>
</g>
<defs>
<linearGradient id="paint0_linear_53_2964" x1="62.1269" y1="4.94118" x2="24.7" y2="77.6923" gradientUnits="userSpaceOnUse">
<stop stop-color="#82BDE2"/>
<stop offset="0.985" stop-color="#2D87C0"/>
</linearGradient>
<clipPath id="clip0_53_2964">
<rect width="75" height="84" rx="20" fill="white"/>
</clipPath>
<clipPath id="clip1_53_2964">
<rect width="29" height="38" fill="white" transform="translate(23 23)"/>
</clipPath>
</defs>
</svg>
