<svg width="75" height="84" viewBox="0 0 75 84" fill="none" xmlns="http://www.w3.org/2000/svg">
<rect width="75" height="84" rx="20" fill="url(#paint0_linear_81_2978)"/>
<g clip-path="url(#clip0_81_2978)">
<path d="M26.4286 27.1875C26.4286 25.9775 25.4391 25 24.2143 25C22.9895 25 22 25.9775 22 27.1875V29.375V50.1562V57.8125C22 59.0225 22.9895 60 24.2143 60C25.4391 60 26.4286 59.0225 26.4286 57.8125V49.0625L30.8779 47.9619C33.7219 47.2578 36.7319 47.5859 39.3545 48.8779C42.4129 50.3887 45.9627 50.5732 49.1596 49.3838L51.5607 48.4951C52.4257 48.1738 53 47.3604 53 46.4443V29.5186C53 27.9463 51.3254 26.9209 49.9 27.625L49.2357 27.9531C46.0319 29.5391 42.2607 29.5391 39.0569 27.9531C36.6281 26.75 33.8395 26.4492 31.2031 27.0986L26.4286 28.2812V27.1875Z" fill="white"/>
</g>
<defs>
<linearGradient id="paint0_linear_81_2978" x1="62.1269" y1="4.94118" x2="24.7" y2="77.6923" gradientUnits="userSpaceOnUse">
<stop stop-color="#8EC5E7"/>
<stop offset="0.985" stop-color="#2D87C0"/>
</linearGradient>
<clipPath id="clip0_81_2978">
<rect width="31" height="35" fill="white" transform="translate(22 25)"/>
</clipPath>
</defs>
</svg>
