<svg width="75" height="84" viewBox="0 0 75 84" fill="none" xmlns="http://www.w3.org/2000/svg">
<rect width="75" height="84" rx="20" fill="url(#paint0_linear_69_2959)"/>
<g clip-path="url(#clip0_69_2959)">
<path d="M39.9375 31.3254V49.8123C39.9375 51.1605 38.8482 52.2498 37.5 52.2498C36.1518 52.2498 35.0625 51.1605 35.0625 49.8123V31.3254L29.4715 36.9164C28.5193 37.8686 26.973 37.8686 26.0209 36.9164C25.0688 35.9643 25.0688 34.418 26.0209 33.4658L35.7709 23.7158C36.723 22.7637 38.2693 22.7637 39.2215 23.7158L48.9715 33.4658C49.9236 34.418 49.9236 35.9643 48.9715 36.9164C48.0193 37.8686 46.473 37.8686 45.5209 36.9164L39.9375 31.3254ZM22.875 49.8123H32.625C32.625 52.5012 34.8111 54.6873 37.5 54.6873C40.1889 54.6873 42.375 52.5012 42.375 49.8123H52.125C54.8139 49.8123 57 51.9984 57 54.6873V57.1248C57 59.8137 54.8139 61.9998 52.125 61.9998H22.875C20.1861 61.9998 18 59.8137 18 57.1248V54.6873C18 51.9984 20.1861 49.8123 22.875 49.8123ZM50.9062 57.7342C51.3911 57.7342 51.8561 57.5416 52.1989 57.1987C52.5418 56.8559 52.7344 56.3909 52.7344 55.9061C52.7344 55.4212 52.5418 54.9562 52.1989 54.6134C51.8561 54.2705 51.3911 54.0779 50.9062 54.0779C50.4214 54.0779 49.9564 54.2705 49.6136 54.6134C49.2707 54.9562 49.0781 55.4212 49.0781 55.9061C49.0781 56.3909 49.2707 56.8559 49.6136 57.1987C49.9564 57.5416 50.4214 57.7342 50.9062 57.7342Z" fill="white"/>
</g>
<defs>
<linearGradient id="paint0_linear_69_2959" x1="62.1269" y1="4.94118" x2="24.7" y2="77.6923" gradientUnits="userSpaceOnUse">
<stop stop-color="#8EC5E7"/>
<stop offset="0.985" stop-color="#2D87C0"/>
</linearGradient>
<clipPath id="clip0_69_2959">
<rect width="39" height="39" fill="white" transform="translate(18 23)"/>
</clipPath>
</defs>
</svg>
